<?xml version="1.0" encoding="UTF-8"?>
<!DOCTYPE svg PUBLIC "-//W3C//DTD SVG 1.1//EN" "http://www.w3.org/Graphics/SVG/1.1/DTD/svg11.dtd">
<svg xmlns="http://www.w3.org/2000/svg" version="1.1" width="128px" height="112px" style="shape-rendering:geometricPrecision; text-rendering:geometricPrecision; image-rendering:optimizeQuality; fill-rule:evenodd; clip-rule:evenodd" xmlns:xlink="http://www.w3.org/1999/xlink">
<g><path style="opacity:0.971" fill="#ffa92b" d="M 89.5,0.5 C 106.508,0.675632 116.175,9.17563 118.5,26C 116.669,41.164 108.169,49.664 93,51.5C 77.8333,49.6667 69.3333,41.1667 67.5,26C 69.0138,12.3289 76.3471,3.82891 89.5,0.5 Z"/></g>
<g><path style="opacity:0.972" fill="#ff4196" d="M 51.5,0.5 C 52.5,0.5 53.5,0.5 54.5,0.5C 54.6666,23.5024 54.5,46.5024 54,69.5C 50.9561,94.0437 37.1228,107.71 12.5,110.5C 11.3335,85.8401 11.1668,61.1734 12,36.5C 16.7634,15.2126 29.9301,3.21264 51.5,0.5 Z"/></g>
<g><path style="opacity:0.972" fill="#ff4195" d="M 90.5,59.5 C 106.988,60.1555 116.322,68.6555 118.5,85C 116.667,100.167 108.167,108.667 93,110.5C 77.836,108.669 69.336,100.169 67.5,85C 69.1301,70.8773 76.7968,62.3773 90.5,59.5 Z"/></g>
</svg>
